<svg xmlns="http://www.w3.org/2000/svg" viewBox="0 0 271.57 271.57"><defs><style>.cls-1{fill:#efeeee;}.cls-2{fill:#199cff;}</style></defs><g id="Tab_dark"><path class="cls-1" d="M161.33,34.85H114.49a1.45,1.45,0,0,0-1.44,1.44L112.75,161c-.09,12.3-.18,29.14-18.54,29.14S74.27,173.43,74.27,162H37.58a1.46,1.46,0,0,0-1.45,1.41C35.3,197.87,48.26,225,93.87,225c4.15,0,24.08.05,32.47-.1a1.46,1.46,0,0,0,1.32-.94l30.77-82.1a1.43,1.43,0,0,0-1.71-1.9l-22.68,6a1.44,1.44,0,0,1-1.76-1.79l30.44-107.4A1.45,1.45,0,0,0,161.33,34.85Z"/><path class="cls-2" d="M166,25.19l-33.7,118.9a1.44,1.44,0,0,0,1.76,1.79l22.68-6a1.43,1.43,0,0,1,1.71,1.9l-36,96.15a1.44,1.44,0,0,0,2.51,1.37l97.78-130.82a1.44,1.44,0,0,0-1.38-2.29l-25,3.85a1.44,1.44,0,0,1-1.52-2l39.67-81.81a1.44,1.44,0,0,0-1.3-2.07H167.37A1.45,1.45,0,0,0,166,25.19Z"/></g></svg>