<svg width="93" height="78" viewBox="0 0 93 78" fill="none" xmlns="http://www.w3.org/2000/svg">
<g filter="url(#filter0_d_46_212)">
<path fill-rule="evenodd" clip-rule="evenodd" d="M40.3229 69.6459C40.3229 69.6459 34.5625 69.6459 34.5625 63.8855C34.5625 58.125 40.3229 40.8438 63.3646 40.8438C86.4062 40.8438 92.1667 58.125 92.1667 63.8855C92.1667 69.6459 86.4062 69.6459 86.4062 69.6459H40.3229ZM63.3646 35.0834C67.9479 35.0834 72.3434 33.2627 75.5843 30.0218C78.8251 26.7809 80.6458 22.3854 80.6458 17.8021C80.6458 13.2189 78.8251 8.8233 75.5843 5.58244C72.3434 2.34157 67.9479 0.520874 63.3646 0.520874C58.7813 0.520874 54.3858 2.34157 51.1449 5.58244C47.904 8.8233 46.0833 13.2189 46.0833 17.8021C46.0833 22.3854 47.904 26.7809 51.1449 30.0218C54.3858 33.2627 58.7813 35.0834 63.3646 35.0834ZM30.0463 69.6459C29.1924 67.8476 28.7665 65.8759 28.8021 63.8855C28.8021 56.0801 32.7192 48.0443 39.9542 42.4567C36.343 41.344 32.5806 40.7999 28.8021 40.8438C5.76042 40.8438 0 58.125 0 63.8855C0 69.6459 5.76042 69.6459 5.76042 69.6459H30.0463ZM25.9219 35.0834C29.7413 35.0834 33.4042 33.5661 36.1049 30.8654C38.8057 28.1647 40.3229 24.5017 40.3229 20.6823C40.3229 16.8629 38.8057 13.2 36.1049 10.4993C33.4042 7.79854 29.7413 6.28129 25.9219 6.28129C22.1025 6.28129 18.4395 7.79854 15.7388 10.4993C13.0381 13.2 11.5208 16.8629 11.5208 20.6823C11.5208 24.5017 13.0381 28.1647 15.7388 30.8654C18.4395 33.5661 22.1025 35.0834 25.9219 35.0834Z" fill="#E7E7E7"/>
</g>
<defs>
<filter id="filter0_d_46_212" x="-4" y="0.520874" width="100.167" height="77.125" filterUnits="userSpaceOnUse" color-interpolation-filters="sRGB">
<feFlood flood-opacity="0" result="BackgroundImageFix"/>
<feColorMatrix in="SourceAlpha" type="matrix" values="0 0 0 0 0 0 0 0 0 0 0 0 0 0 0 0 0 0 127 0" result="hardAlpha"/>
<feOffset dy="4"/>
<feGaussianBlur stdDeviation="2"/>
<feComposite in2="hardAlpha" operator="out"/>
<feColorMatrix type="matrix" values="0 0 0 0 0 0 0 0 0 0 0 0 0 0 0 0 0 0 0.25 0"/>
<feBlend mode="normal" in2="BackgroundImageFix" result="effect1_dropShadow_46_212"/>
<feBlend mode="normal" in="SourceGraphic" in2="effect1_dropShadow_46_212" result="shape"/>
</filter>
</defs>
</svg>
