<svg width="83" height="83" viewBox="0 0 83 83" fill="none" xmlns="http://www.w3.org/2000/svg">
<g clip-path="url(#clip0_46_201)">
<path d="M66.7444 79.4235C71.866 74.441 75.9278 68.5202 78.6963 62.0015C81.4648 55.4827 82.8854 48.4945 82.8766 41.4384C82.8854 34.3823 81.4648 27.394 78.6963 20.8753C75.9278 14.3565 71.866 8.43573 66.7444 3.45325L62.1575 7.92171C66.6766 12.3181 70.2605 17.5423 72.7032 23.2943C75.1459 29.0462 76.3993 35.2124 76.3913 41.4384C76.3913 54.5278 70.9492 66.3784 62.1575 74.955L66.7444 79.4235Z" fill="#D9D9D9"/>
<path d="M58.3581 71.1358C62.1955 67.2855 65.2388 62.7103 67.3131 57.6731C69.3874 52.6359 70.4518 47.236 70.4452 41.7837C70.4518 36.3313 69.3874 30.9314 67.3131 25.8942C65.2388 20.857 62.1955 16.2818 58.3581 12.4315L53.8699 16.9467C57.1169 20.2048 59.6919 24.0762 61.447 28.3385C63.2021 32.6009 64.1027 37.1701 64.0969 41.7837C64.1043 46.3979 63.2052 50.968 61.4512 55.2315C59.6972 59.495 57.1228 63.3677 53.8762 66.627L58.3581 71.1358Z" fill="#D9D9D9"/>
<path d="M49.2319 62.1575C51.8009 59.5302 53.8383 56.4083 55.2269 52.9711C56.6154 49.534 57.3278 45.8493 57.3231 42.129C57.3278 38.4086 56.6154 34.724 55.2269 31.2869C53.8383 27.8497 51.8009 24.7278 49.2319 22.1005L44.8916 26.5505C46.8898 28.5941 48.4743 31.0224 49.5542 33.6959C50.6341 36.3694 51.188 39.2353 51.1841 42.129C51.1876 45.0226 50.6336 47.8884 49.5537 50.5619C48.4738 53.2353 46.8895 55.6636 44.8916 57.7074L49.2319 62.1575Z" fill="#D9D9D9"/>
<path fill-rule="evenodd" clip-rule="evenodd" d="M36.1935 13.4372C36.7298 13.6971 37.1824 14.104 37.4993 14.611C37.8162 15.1181 37.9846 15.7048 37.9851 16.3037V67.2647C37.9843 67.864 37.8154 68.4509 37.4979 68.958C37.1803 69.4651 36.7271 69.8717 36.1902 70.1312C35.6532 70.3907 35.0545 70.4925 34.4626 70.4249C33.8708 70.3573 33.3099 70.123 32.8445 69.749L17.8847 57.7095H3.16543C2.3259 57.7095 1.52076 57.3739 0.927132 56.7766C0.333499 56.1793 0 55.3692 0 54.5244V29.044C0 28.1992 0.333499 27.3891 0.927132 26.7918C1.52076 26.1945 2.3259 25.8589 3.16543 25.8589H17.8847L32.8445 13.8194C33.3102 13.4447 33.8717 13.2101 34.4642 13.1425C35.0567 13.0749 35.6562 13.177 36.1935 13.4372Z" fill="#D9D9D9"/>
</g>
<defs>
<clipPath id="clip0_46_201">
<rect width="82.8766" height="82.8766" fill="white"/>
</clipPath>
</defs>
</svg>
