<svg width="84" height="83" viewBox="0 0 84 83" fill="none" xmlns="http://www.w3.org/2000/svg">
<g clip-path="url(#clip0_46_191)">
<path fill-rule="evenodd" clip-rule="evenodd" d="M41.8402 77.6968C51.4565 77.6968 60.679 73.8768 67.4788 67.077C74.2786 60.2772 78.0987 51.0547 78.0987 41.4383C78.0987 31.822 74.2786 22.5995 67.4788 15.7997C60.679 8.99987 51.4565 5.17979 41.8402 5.17979C32.2238 5.17979 23.0013 8.99987 16.2015 15.7997C9.40173 22.5995 5.58165 31.822 5.58165 41.4383C5.58165 51.0547 9.40173 60.2772 16.2015 67.077C23.0013 73.8768 32.2238 77.6968 41.8402 77.6968ZM41.8402 82.8766C52.8303 82.8766 63.3703 78.5108 71.1415 70.7396C78.9127 62.9684 83.2785 52.4284 83.2785 41.4383C83.2785 30.4482 78.9127 19.9082 71.1415 12.137C63.3703 4.36581 52.8303 0 41.8402 0C30.85 0 20.31 4.36581 12.5389 12.137C4.76767 19.9082 0.401855 30.4482 0.401855 41.4383C0.401855 52.4284 4.76767 62.9684 12.5389 70.7396C20.31 78.5108 30.85 82.8766 41.8402 82.8766Z" fill="#E7E7E7"/>
<path fill-rule="evenodd" clip-rule="evenodd" d="M41.8402 67.3373C48.709 67.3373 55.2965 64.6087 60.1535 59.7517C65.0105 54.8947 67.7392 48.3072 67.7392 41.4384C67.7392 34.5695 65.0105 27.982 60.1535 23.125C55.2965 18.268 48.709 15.5394 41.8402 15.5394C34.9714 15.5394 28.3839 18.268 23.5269 23.125C18.6699 27.982 15.9413 34.5695 15.9413 41.4384C15.9413 48.3072 18.6699 54.8947 23.5269 59.7517C28.3839 64.6087 34.9714 67.3373 41.8402 67.3373ZM41.8402 72.5171C45.9215 72.5171 49.9629 71.7132 53.7335 70.1514C57.5042 68.5895 60.9303 66.3003 63.8162 63.4143C66.7021 60.5284 68.9914 57.1023 70.5532 53.3317C72.1151 49.561 72.9189 45.5197 72.9189 41.4384C72.9189 37.357 72.1151 33.3157 70.5532 29.545C68.9914 25.7744 66.7021 22.3483 63.8162 19.4624C60.9303 16.5764 57.5042 14.2872 53.7335 12.7253C49.9629 11.1635 45.9215 10.3596 41.8402 10.3596C33.5976 10.3596 25.6926 13.634 19.8642 19.4624C14.0358 25.2908 10.7615 33.1958 10.7615 41.4384C10.7615 49.681 14.0358 57.5859 19.8642 63.4143C25.6926 69.2427 33.5976 72.5171 41.8402 72.5171Z" fill="#E7E7E7"/>
<path fill-rule="evenodd" clip-rule="evenodd" d="M41.8403 56.9776C45.9615 56.9776 49.914 55.3405 52.8282 52.4263C55.7424 49.5121 57.3796 45.5596 57.3796 41.4383C57.3796 37.317 55.7424 33.3645 52.8282 30.4503C49.914 27.5361 45.9615 25.8989 41.8403 25.8989C37.719 25.8989 33.7665 27.5361 30.8523 30.4503C27.9381 33.3645 26.3009 37.317 26.3009 41.4383C26.3009 45.5596 27.9381 49.5121 30.8523 52.4263C33.7665 55.3405 37.719 56.9776 41.8403 56.9776ZM41.8403 62.1574C47.3353 62.1574 52.6053 59.9745 56.4909 56.0889C60.3765 52.2033 62.5594 46.9333 62.5594 41.4383C62.5594 35.9432 60.3765 30.6732 56.4909 26.7876C52.6053 22.902 47.3353 20.7191 41.8403 20.7191C36.3452 20.7191 31.0752 22.902 27.1896 26.7876C23.304 30.6732 21.1211 35.9432 21.1211 41.4383C21.1211 46.9333 23.304 52.2033 27.1896 56.0889C31.0752 59.9745 36.3452 62.1574 41.8403 62.1574Z" fill="#E7E7E7"/>
<path d="M49.6099 41.4383C49.6099 43.4989 48.7913 45.4752 47.3342 46.9323C45.8771 48.3894 43.9009 49.2079 41.8402 49.2079C39.7796 49.2079 37.8033 48.3894 36.3462 46.9323C34.8891 45.4752 34.0706 43.4989 34.0706 41.4383C34.0706 39.3776 34.8891 37.4014 36.3462 35.9443C37.8033 34.4872 39.7796 33.6686 41.8402 33.6686C43.9009 33.6686 45.8771 34.4872 47.3342 35.9443C48.7913 37.4014 49.6099 39.3776 49.6099 41.4383Z" fill="#E7E7E7"/>
</g>
<defs>
<clipPath id="clip0_46_191">
<rect width="82.8766" height="82.8766" fill="white" transform="translate(0.401855)"/>
</clipPath>
</defs>
</svg>
