<svg width="83" height="83" viewBox="0 0 83 83" fill="none" xmlns="http://www.w3.org/2000/svg">
<g clip-path="url(#clip0_46_221)">
<path fill-rule="evenodd" clip-rule="evenodd" d="M28.4888 2.58989C28.4888 1.90301 28.216 1.24426 27.7303 0.758563C27.2446 0.272863 26.5858 0 25.8989 0C25.2121 0 24.5533 0.272863 24.0676 0.758563C23.5819 1.24426 23.3091 1.90301 23.3091 2.58989V10.3596C19.8746 10.3596 16.5809 11.7239 14.1524 14.1524C11.7239 16.5809 10.3596 19.8746 10.3596 23.3091H2.58989C1.90301 23.3091 1.24426 23.5819 0.758563 24.0676C0.272863 24.5533 0 25.2121 0 25.8989C0 26.5858 0.272863 27.2446 0.758563 27.7303C1.24426 28.216 1.90301 28.4888 2.58989 28.4888H10.3596V33.6686H2.58989C1.90301 33.6686 1.24426 33.9415 0.758563 34.4272C0.272863 34.9129 0 35.5716 0 36.2585C0 36.9454 0.272863 37.6042 0.758563 38.0899C1.24426 38.5756 1.90301 38.8484 2.58989 38.8484H10.3596V44.0282H2.58989C1.90301 44.0282 1.24426 44.3011 0.758563 44.7868C0.272863 45.2725 0 45.9312 0 46.6181C0 47.305 0.272863 47.9637 0.758563 48.4494C1.24426 48.9351 1.90301 49.208 2.58989 49.208H10.3596V54.3878H2.58989C1.90301 54.3878 1.24426 54.6607 0.758563 55.1464C0.272863 55.632 0 56.2908 0 56.9777C0 57.6646 0.272863 58.3233 0.758563 58.809C1.24426 59.2947 1.90301 59.5676 2.58989 59.5676H10.3596C10.3596 63.002 11.7239 66.2957 14.1524 68.7242C16.5809 71.1527 19.8746 72.5171 23.3091 72.5171V80.2867C23.3091 80.9736 23.5819 81.6324 24.0676 82.1181C24.5533 82.6038 25.2121 82.8766 25.8989 82.8766C26.5858 82.8766 27.2446 82.6038 27.7303 82.1181C28.216 81.6324 28.4888 80.9736 28.4888 80.2867V72.5171H33.6686V80.2867C33.6686 80.9736 33.9415 81.6324 34.4272 82.1181C34.9129 82.6038 35.5716 82.8766 36.2585 82.8766C36.9454 82.8766 37.6042 82.6038 38.0899 82.1181C38.5756 81.6324 38.8484 80.9736 38.8484 80.2867V72.5171H44.0282V80.2867C44.0282 80.9736 44.3011 81.6324 44.7868 82.1181C45.2725 82.6038 45.9312 82.8766 46.6181 82.8766C47.305 82.8766 47.9637 82.6038 48.4494 82.1181C48.9351 81.6324 49.208 80.9736 49.208 80.2867V72.5171H54.3878V80.2867C54.3878 80.9736 54.6607 81.6324 55.1464 82.1181C55.632 82.6038 56.2908 82.8766 56.9777 82.8766C57.6646 82.8766 58.3233 82.6038 58.809 82.1181C59.2947 81.6324 59.5676 80.9736 59.5676 80.2867V72.5171C63.002 72.5171 66.2957 71.1527 68.7242 68.7242C71.1527 66.2957 72.5171 63.002 72.5171 59.5676H80.2867C80.9736 59.5676 81.6324 59.2947 82.1181 58.809C82.6038 58.3233 82.8766 57.6646 82.8766 56.9777C82.8766 56.2908 82.6038 55.632 82.1181 55.1464C81.6324 54.6607 80.9736 54.3878 80.2867 54.3878H72.5171V49.208H80.2867C80.9736 49.208 81.6324 48.9351 82.1181 48.4494C82.6038 47.9637 82.8766 47.305 82.8766 46.6181C82.8766 45.9312 82.6038 45.2725 82.1181 44.7868C81.6324 44.3011 80.9736 44.0282 80.2867 44.0282H72.5171V38.8484H80.2867C80.9736 38.8484 81.6324 38.5756 82.1181 38.0899C82.6038 37.6042 82.8766 36.9454 82.8766 36.2585C82.8766 35.5716 82.6038 34.9129 82.1181 34.4272C81.6324 33.9415 80.9736 33.6686 80.2867 33.6686H72.5171V28.4888H80.2867C80.9736 28.4888 81.6324 28.216 82.1181 27.7303C82.6038 27.2446 82.8766 26.5858 82.8766 25.8989C82.8766 25.2121 82.6038 24.5533 82.1181 24.0676C81.6324 23.5819 80.9736 23.3091 80.2867 23.3091H72.5171C72.5171 19.8746 71.1527 16.5809 68.7242 14.1524C66.2957 11.7239 63.002 10.3596 59.5676 10.3596V2.58989C59.5676 1.90301 59.2947 1.24426 58.809 0.758563C58.3233 0.272863 57.6646 0 56.9777 0C56.2908 0 55.632 0.272863 55.1464 0.758563C54.6607 1.24426 54.3878 1.90301 54.3878 2.58989V10.3596H49.208V2.58989C49.208 1.90301 48.9351 1.24426 48.4494 0.758563C47.9637 0.272863 47.305 0 46.6181 0C45.9312 0 45.2725 0.272863 44.7868 0.758563C44.3011 1.24426 44.0282 1.90301 44.0282 2.58989V10.3596H38.8484V2.58989C38.8484 1.90301 38.5756 1.24426 38.0899 0.758563C37.6042 0.272863 36.9454 0 36.2585 0C35.5716 0 34.9129 0.272863 34.4272 0.758563C33.9415 1.24426 33.6686 1.90301 33.6686 2.58989V10.3596H28.4888V2.58989ZM33.6686 25.8989C31.608 25.8989 29.6317 26.7175 28.1746 28.1746C26.7175 29.6317 25.8989 31.608 25.8989 33.6686V49.208C25.8989 51.2687 26.7175 53.2449 28.1746 54.702C29.6317 56.1591 31.608 56.9777 33.6686 56.9777H49.208C51.2687 56.9777 53.2449 56.1591 54.702 54.702C56.1591 53.2449 56.9777 51.2687 56.9777 49.208V33.6686C56.9777 31.608 56.1591 29.6317 54.702 28.1746C53.2449 26.7175 51.2687 25.8989 49.208 25.8989H33.6686ZM33.6686 31.0787C32.9818 31.0787 32.323 31.3516 31.8373 31.8373C31.3516 32.323 31.0787 32.9818 31.0787 33.6686V49.208C31.0787 49.8949 31.3516 50.5536 31.8373 51.0393C32.323 51.525 32.9818 51.7979 33.6686 51.7979H49.208C49.8949 51.7979 50.5536 51.525 51.0393 51.0393C51.525 50.5536 51.7979 49.8949 51.7979 49.208V33.6686C51.7979 32.9818 51.525 32.323 51.0393 31.8373C50.5536 31.3516 49.8949 31.0787 49.208 31.0787H33.6686Z" fill="#E7E7E7"/>
</g>
<defs>
<clipPath id="clip0_46_221">
<rect width="82.8766" height="82.8766" fill="white"/>
</clipPath>
</defs>
</svg>
