<svg width="83" height="83" viewBox="0 0 83 83" fill="none" xmlns="http://www.w3.org/2000/svg">
<g clip-path="url(#clip0_46_183)">
<path d="M54.3877 41.4384C54.3877 44.8728 53.0234 48.1665 50.5949 50.595C48.1664 53.0235 44.8727 54.3878 41.4382 54.3878C38.0038 54.3878 34.7101 53.0235 32.2816 50.595C29.8531 48.1665 28.4888 44.8728 28.4888 41.4384C28.4888 38.004 29.8531 34.7102 32.2816 32.2817C34.7101 29.8532 38.0038 28.4889 41.4382 28.4889C44.8727 28.4889 48.1664 29.8532 50.5949 32.2817C53.0234 34.7102 54.3877 38.004 54.3877 41.4384Z" fill="#E7E7E7"/>
<path fill-rule="evenodd" clip-rule="evenodd" d="M0 41.4383C0 41.4383 15.5394 12.9495 41.4383 12.9495C67.3373 12.9495 82.8766 41.4383 82.8766 41.4383C82.8766 41.4383 67.3373 69.9271 41.4383 69.9271C15.5394 69.9271 0 41.4383 0 41.4383ZM41.4383 59.5676C46.2465 59.5676 50.8577 57.6575 54.2576 54.2576C57.6575 50.8577 59.5676 46.2465 59.5676 41.4383C59.5676 36.6301 57.6575 32.0189 54.2576 28.619C50.8577 25.2191 46.2465 23.309 41.4383 23.309C36.6301 23.309 32.0189 25.2191 28.619 28.619C25.2191 32.0189 23.3091 36.6301 23.3091 41.4383C23.3091 46.2465 25.2191 50.8577 28.619 54.2576C32.0189 57.6575 36.6301 59.5676 41.4383 59.5676Z" fill="#E7E7E7"/>
</g>
<defs>
<clipPath id="clip0_46_183">
<rect width="82.8766" height="82.8766" fill="white"/>
</clipPath>
</defs>
</svg>
