<svg width="83" height="83" viewBox="0 0 83 83" fill="none" xmlns="http://www.w3.org/2000/svg">
<g clip-path="url(#clip0_46_215)">
<path d="M60.51 35.7087H81.6268C81.8819 35.7088 82.1317 35.7817 82.347 35.919C82.5622 36.0563 82.734 36.2522 82.8422 36.4839C82.9504 36.7155 82.9905 36.9733 82.9579 37.2269C82.9253 37.4806 82.8212 37.7197 82.6579 37.9162L72.0995 50.6233C71.9735 50.7748 71.8158 50.8966 71.6376 50.9803C71.4595 51.0639 71.2651 51.1073 71.0684 51.1073C70.8716 51.1073 70.6773 51.0639 70.4991 50.9803C70.3209 50.8966 70.1632 50.7748 70.0372 50.6233L59.4788 37.9162C59.3156 37.7197 59.2115 37.4806 59.1789 37.2269C59.1462 36.9733 59.1864 36.7155 59.2946 36.4839C59.4028 36.2522 59.5745 36.0563 59.7898 35.919C60.005 35.7817 60.2548 35.7088 60.51 35.7087ZM1.43441 46.4773H22.5512C22.8064 46.4772 23.0562 46.4043 23.2714 46.267C23.4867 46.1297 23.6584 45.9338 23.7666 45.7021C23.8748 45.4705 23.915 45.2127 23.8823 44.9591C23.8497 44.7054 23.7456 44.4663 23.5824 44.2698L13.024 31.5627C12.898 31.4112 12.7403 31.2894 12.5621 31.2057C12.3839 31.1221 12.1896 31.0787 11.9928 31.0787C11.7961 31.0787 11.6017 31.1221 11.4236 31.2057C11.2454 31.2894 11.0877 31.4112 10.9617 31.5627L0.403272 44.2698C0.239996 44.4663 0.13595 44.7054 0.103316 44.9591C0.0706819 45.2127 0.110811 45.4705 0.219006 45.7021C0.3272 45.9338 0.49898 46.1297 0.71423 46.267C0.92948 46.4043 1.17929 46.4772 1.43441 46.4773Z" fill="#E7E7E7"/>
<path fill-rule="evenodd" clip-rule="evenodd" d="M41.876 14.3209C33.6336 14.3209 26.2622 18.1064 21.3922 24.0552C21.1747 24.3394 20.9028 24.5766 20.5926 24.7527C20.2824 24.9288 19.9402 25.0402 19.5864 25.0803C19.2327 25.1204 18.8745 25.0883 18.5333 24.9861C18.192 24.8838 17.8746 24.7135 17.6 24.4851C17.3254 24.2567 17.0991 23.9749 16.9347 23.6566C16.7702 23.3383 16.6709 22.9898 16.6427 22.632C16.6145 22.2743 16.6579 21.9144 16.7704 21.5739C16.8829 21.2333 17.0622 20.9191 17.2975 20.6498C21.1861 15.9032 26.345 12.3826 32.1607 10.5067C37.9764 8.63072 44.2042 8.47839 50.1033 10.0678C56.0025 11.6572 61.3246 14.9214 65.4369 19.4723C69.5491 24.0231 72.2784 29.6691 73.3 35.7385H67.8989C66.6728 29.6924 63.4133 24.2586 58.6716 20.3561C53.9299 16.4535 47.9969 14.3216 41.876 14.3209ZM15.853 46.4474C16.8584 51.3982 19.2325 55.9612 22.7012 59.6093C26.1698 63.2574 30.5913 65.8416 35.455 67.0634C40.3187 68.2853 45.4259 68.0949 50.1868 66.5142C54.9477 64.9335 59.1678 62.0271 62.3597 58.1307C62.5772 57.8465 62.8491 57.6094 63.1593 57.4333C63.4695 57.2572 63.8117 57.1458 64.1655 57.1056C64.5192 57.0655 64.8774 57.0976 65.2187 57.1998C65.5599 57.3021 65.8773 57.4725 66.1519 57.7009C66.4265 57.9293 66.6528 58.211 66.8172 58.5293C66.9817 58.8477 67.081 59.1961 67.1092 59.5539C67.1374 59.9117 67.094 60.2715 66.9815 60.6121C66.869 60.9526 66.6898 61.2669 66.4544 61.5361C62.5659 66.2827 57.4069 69.8033 51.5912 71.6793C45.7755 73.5552 39.5477 73.7075 33.6486 72.1181C27.7495 70.5287 22.4273 67.2645 18.315 62.7136C14.2028 58.1628 11.4735 52.5169 10.4519 46.4474H15.853Z" fill="#E7E7E7"/>
</g>
<defs>
<clipPath id="clip0_46_215">
<rect width="82.8766" height="82.8766" fill="white" transform="translate(0.0922852)"/>
</clipPath>
</defs>
</svg>
