<svg width="161" height="161" viewBox="0 0 161 161" fill="none" xmlns="http://www.w3.org/2000/svg">
<path fill-rule="evenodd" clip-rule="evenodd" d="M35.2188 0C36.5531 0 37.8328 0.530077 38.7764 1.47362C39.7199 2.41716 40.25 3.69688 40.25 5.03125V10.0625H120.75V5.03125C120.75 3.69688 121.28 2.41716 122.224 1.47362C123.167 0.530077 124.447 0 125.781 0C127.116 0 128.395 0.530077 129.339 1.47362C130.282 2.41716 130.813 3.69688 130.813 5.03125V10.0625H140.875C146.213 10.0625 151.331 12.1828 155.106 15.957C158.88 19.7311 161 24.85 161 30.1875V140.875C161 146.213 158.88 151.331 155.106 155.106C151.331 158.88 146.213 161 140.875 161H20.125C14.7875 161 9.66865 158.88 5.89448 155.106C2.12031 151.331 0 146.213 0 140.875V30.1875C0 24.85 2.12031 19.7311 5.89448 15.957C9.66865 12.1828 14.7875 10.0625 20.125 10.0625H30.1875V5.03125C30.1875 3.69688 30.7176 2.41716 31.6611 1.47362C32.6047 0.530077 33.8844 0 35.2188 0V0ZM10.0625 40.25V140.875C10.0625 143.544 11.1227 146.103 13.0097 147.99C14.8968 149.877 17.4563 150.938 20.125 150.938H140.875C143.544 150.938 146.103 149.877 147.99 147.99C149.877 146.103 150.938 143.544 150.938 140.875V40.25H10.0625Z" fill="#199CFF"/>
</svg>