<svg width="39" height="34" viewBox="0 0 39 34" fill="none" xmlns="http://www.w3.org/2000/svg">
<path fill-rule="evenodd" clip-rule="evenodd" d="M1.39277 0C1.02338 0 0.669127 0.149248 0.407932 0.41491C0.146738 0.680573 0 1.04089 0 1.41659V15.0159C0 15.946 0.180125 16.8671 0.530091 17.7264C0.880057 18.5858 1.39301 19.3666 2.03966 20.0243C3.34564 21.3526 5.11692 22.0988 6.96384 22.0988H34.2426L24.9194 31.5787C24.6579 31.8447 24.511 32.2054 24.511 32.5816C24.511 32.9578 24.6579 33.3186 24.9194 33.5846C25.1809 33.8506 25.5356 34 25.9055 34C26.2753 34 26.63 33.8506 26.8916 33.5846L38.5908 21.6852C38.7205 21.5536 38.8234 21.3973 38.8936 21.2252C38.9639 21.0531 39 20.8686 39 20.6822C39 20.4959 38.9639 20.3114 38.8936 20.1393C38.8234 19.9672 38.7205 19.8109 38.5908 19.6793L27.4487 8.34656C27.1872 8.08056 26.8324 7.93113 26.4626 7.93113C26.0927 7.93113 25.738 8.08056 25.4765 8.34656C25.215 8.61256 25.0681 8.97333 25.0681 9.34951C25.0681 9.72569 25.215 10.0865 25.4765 10.3525L34.2426 19.2657H6.96384C5.85569 19.2657 4.79292 18.8179 4.00933 18.0209C3.22575 17.2239 2.78554 16.143 2.78554 15.0159V1.41659C2.78554 1.04089 2.6388 0.680573 2.3776 0.41491C2.11641 0.149248 1.76215 0 1.39277 0Z" fill="#199CFF"/>
</svg>
