<svg width="40" height="28" viewBox="0 0 40 28" fill="none" xmlns="http://www.w3.org/2000/svg">
<path d="M26.25 13.7499C26.25 15.4075 25.5915 16.9973 24.4194 18.1694C23.2473 19.3415 21.6576 19.9999 20 19.9999C18.3424 19.9999 16.7527 19.3415 15.5806 18.1694C14.4085 16.9973 13.75 15.4075 13.75 13.7499C13.75 12.0923 14.4085 10.5026 15.5806 9.33052C16.7527 8.15842 18.3424 7.49994 20 7.49994C21.6576 7.49994 23.2473 8.15842 24.4194 9.33052C25.5915 10.5026 26.25 12.0923 26.25 13.7499V13.7499Z" fill="#199CFF"/>
<path fill-rule="evenodd" clip-rule="evenodd" d="M0 13.75C0 13.75 7.5 0 20 0C32.5 0 40 13.75 40 13.75C40 13.75 32.5 27.5 20 27.5C7.5 27.5 0 13.75 0 13.75ZM20 22.5C22.3206 22.5 24.5462 21.5781 26.1872 19.9372C27.8281 18.2962 28.75 16.0706 28.75 13.75C28.75 11.4294 27.8281 9.20376 26.1872 7.56282C24.5462 5.92187 22.3206 5 20 5C17.6794 5 15.4538 5.92187 13.8128 7.56282C12.1719 9.20376 11.25 11.4294 11.25 13.75C11.25 16.0706 12.1719 18.2962 13.8128 19.9372C15.4538 21.5781 17.6794 22.5 20 22.5V22.5Z" fill="#199CFF"/>
</svg>
