<svg width="40" height="32" viewBox="0 0 40 32" fill="none" xmlns="http://www.w3.org/2000/svg">
<path d="M26.975 28.165L22.94 24.1275C21.3796 24.6854 19.6929 24.7887 18.076 24.4254C16.4592 24.0622 14.9788 23.2472 13.807 22.0755C12.6353 20.9037 11.8204 19.4233 11.4571 17.8065C11.0938 16.1896 11.1971 14.5029 11.755 12.9425L6.605 7.79251C2.345 11.58 0 15.885 0 15.885C0 15.885 7.5 29.635 20 29.635C22.401 29.6267 24.7748 29.1264 26.975 28.165ZM13.025 3.60501C15.2251 2.64357 17.599 2.14328 20 2.13501C32.5 2.13501 40 15.885 40 15.885C40 15.885 37.6525 20.1875 33.3975 23.98L28.2425 18.825C28.8004 17.2646 28.9037 15.5779 28.5404 13.9611C28.1771 12.3442 27.3622 10.8638 26.1905 9.69206C25.0187 8.52029 23.5383 7.70536 21.9214 7.34208C20.3046 6.97881 18.6179 7.08212 17.0575 7.64001L13.025 3.60751V3.60501Z" fill="#199CFF"/>
<path d="M13.8131 15C13.6755 15.9608 13.7637 16.9404 14.0705 17.8612C14.3773 18.782 14.8943 19.6187 15.5806 20.305C16.2669 20.9913 17.1036 21.5083 18.0244 21.8151C18.9452 22.1219 19.9248 22.21 20.8856 22.0725L13.8106 15H13.8131ZM26.1881 16.77L19.1156 9.69501C20.0763 9.5575 21.0559 9.64563 21.9767 9.95242C22.8975 10.2592 23.7342 10.7762 24.4205 11.4625C25.1068 12.1488 25.6239 12.9855 25.9306 13.9063C26.2374 14.8271 26.3256 15.8067 26.1881 16.7675V16.77Z" fill="#199CFF"/>
<path fill-rule="evenodd" clip-rule="evenodd" d="M34.1162 31.77L4.11621 1.77L5.88621 0L35.8862 30L34.1162 31.77Z" fill="#199CFF"/>
</svg>
