<svg width="359" height="196" viewBox="0 0 359 196" fill="none" xmlns="http://www.w3.org/2000/svg">
<path d="M210.6 154.2V156.6C210.6 156.7 210.5 156.8 210.4 156.8H206.8C206.7 156.8 206.6 156.9 206.6 157V167.6C206.6 167.7 206.5 167.8 206.4 167.8H204C203.9 167.8 203.8 167.7 203.8 167.6V157C203.8 156.9 203.7 156.8 203.6 156.8H200C199.9 156.8 199.8 156.7 199.8 156.6V154.2C199.8 154.1 199.9 154 200 154H210.7C210.5 153.9 210.6 154 210.6 154.2Z" fill="#EFEEEE"/>
<path d="M221.4 154.2V156.6C221.4 156.7 221.3 156.8 221.2 156.8H215.3C215.2 156.8 215.1 156.9 215.1 157V159.3C215.1 159.4 215.2 159.5 215.3 159.5H220.9C221 159.5 221.1 159.6 221.1 159.7V161.8C221.1 161.9 221 162 220.9 162H215.3C215.2 162 215.1 162.1 215.1 162.2V164.5C215.1 164.6 215.2 164.7 215.3 164.7H221.2C221.3 164.7 221.4 164.8 221.4 164.9V167.3C221.4 167.4 221.3 167.5 221.2 167.5H212.5C212.4 167.5 212.3 167.4 212.3 167.3V153.8C212.3 153.7 212.4 153.6 212.5 153.6H221.2C221.3 153.9 221.4 154 221.4 154.2Z" fill="#EFEEEE"/>
<path d="M235.6 155.6L234.2 157.6C234.1 157.7 234 157.7 233.9 157.7C233 157.1 231.9 156.6 230.7 156.6C228.4 156.6 226.2 158.1 226.1 160.9C226.2 163.7 228.4 165.2 230.7 165.2C231.9 165.2 233 164.8 233.9 164.1C234 164 234.2 164 234.2 164.2L235.6 166.2C235.7 166.3 235.7 166.5 235.5 166.5C234.2 167.5 232.6 168.1 230.6 168.1C226.1 168.1 223 164.7 223 160.8C223 156.8 226.2 153.5 230.6 153.5C232.5 153.5 234.2 154.1 235.5 155.1C235.6 155.3 235.7 155.5 235.6 155.6Z" fill="#EFEEEE"/>
<path d="M239.8 154.2V159.3C239.8 159.4 239.9 159.5 240 159.5H244.8C244.9 159.5 245 159.4 245 159.3V154.2C245 154.1 245.1 154 245.2 154H247.6C247.7 154 247.8 154.1 247.8 154.2V167.7C247.8 167.8 247.7 167.9 247.6 167.9H245.2C245.1 167.9 245 167.8 245 167.7V162.6C245 162.5 244.9 162.4 244.8 162.4H240C239.9 162.4 239.8 162.5 239.8 162.6V167.7C239.8 167.8 239.7 167.9 239.6 167.9H237.2C237.1 167.9 237 167.8 237 167.7V154.2C237 154.1 237.1 154 237.2 154H239.6C239.7 153.9 239.8 154 239.8 154.2Z" fill="#EFEEEE"/>
<path d="M264.8 154.2V156.6C264.8 156.7 264.7 156.8 264.6 156.8H261C260.9 156.8 260.8 156.9 260.8 157V167.6C260.8 167.7 260.7 167.8 260.6 167.8H258C257.9 167.8 257.8 167.7 257.8 167.6V157C257.8 156.9 257.7 156.8 257.6 156.8H254C253.9 156.8 253.8 156.7 253.8 156.6V154.2C253.8 154.1 253.9 154 254 154H264.7C264.7 153.9 264.8 154 264.8 154.2Z" fill="#EFEEEE"/>
<path d="M273.5 154.1L278.4 167.6C278.5 167.8 278.3 167.9 278.2 167.9H275.7C275.6 167.9 275.5 167.8 275.5 167.7L274.5 165C274.5 164.9 274.4 164.8 274.3 164.8H269.7C269.6 164.8 269.5 164.9 269.5 165L268.5 167.7C268.5 167.8 268.4 167.9 268.3 167.9H265.8C265.6 167.9 265.5 167.7 265.6 167.6L270.5 154.1C270.5 154 270.6 153.9 270.7 153.9H273.4C273.3 153.9 273.4 154 273.5 154.1ZM270.8 162H273C273.2 162 273.3 161.8 273.2 161.7L272.1 158.7C272 158.5 271.7 158.5 271.6 158.7L270.5 161.7C270.5 161.9 270.6 162 270.8 162Z" fill="#EFEEEE"/>
<path d="M282.5 154.2V164.8C282.5 164.9 282.6 165 282.7 165H288.5C288.6 165 288.7 165.1 288.7 165.2V167.6C288.7 167.7 288.6 167.8 288.5 167.8H279.7C279.6 167.8 279.5 167.7 279.5 167.6V154.1C279.5 154 279.6 153.9 279.7 153.9H282.1C282.4 153.9 282.5 154 282.5 154.2Z" fill="#EFEEEE"/>
<path d="M293.3 154.2V160.8C293.3 161 293.6 161.1 293.7 161L299.2 154.1C299.2 154 299.3 154 299.4 154H302.4C302.6 154 302.7 154.2 302.6 154.4L297.5 160.8C297.4 160.9 297.4 161 297.5 161.1L302.6 167.5C302.7 167.7 302.6 167.9 302.4 167.9H299.4C299.3 167.9 299.3 167.9 299.2 167.8L295.7 163.4C295.6 163.3 295.4 163.3 295.3 163.4L293.3 166C293.3 166 293.2 166.1 293.2 166.2V167.7C293.2 167.8 293.1 167.9 293 167.9H290.7C290.6 167.9 290.5 167.8 290.5 167.7V154.2C290.5 154.1 290.6 154 290.7 154H293C293.2 153.9 293.3 154 293.3 154.2Z" fill="#EFEEEE"/>
<path d="M312.3 155.1L311 157C310.9 157.1 310.8 157.1 310.7 157.1C310.1 156.8 309.4 156.4 308.5 156.4C307.7 156.4 306.8 156.8 306.8 157.7C306.8 158.5 308.3 159 309 159.2C311.3 159.8 313.3 161.3 313.3 163.6C313.3 165.9 311.4 168.1 308.4 168.1C306.5 168.1 305 167.4 303.6 166.4C303.5 166.3 303.5 166.2 303.5 166.1L304.7 164.1C304.8 164 304.9 163.9 305.1 164C306 164.7 307.1 165.2 308.3 165.2C309.3 165.2 310.4 164.7 310.4 163.6C310.4 162.6 308.9 162.1 307.9 161.8C305.9 161.3 303.9 160.1 303.9 157.6C303.9 155.3 306 153.5 308.5 153.5C310.3 153.5 311.3 154.1 312.3 154.7C312.4 154.8 312.4 155 312.3 155.1Z" fill="#EFEEEE"/>
<path d="M54.1 154.2V156.6C54.1 156.7 54 156.8 53.9 156.8H48C47.9 156.8 47.8 156.9 47.8 157V159.3C47.8 159.4 47.9 159.5 48 159.5H53.7C53.8 159.5 53.9 159.6 53.9 159.7V161.8C53.9 161.9 53.8 162 53.7 162H48C47.9 162 47.8 162.1 47.8 162.2V164.5C47.8 164.6 47.9 164.7 48 164.7H53.9C54 164.7 54.1 164.8 54.1 164.9V167.3C54.1 167.4 54 167.5 53.9 167.5H45.2C45.1 167.5 45 167.4 45 167.3V153.8C45 153.7 45.1 153.6 45.2 153.6H53.9C53.9 153.9 54.1 154 54.1 154.2Z" fill="#EFEEEE"/>
<path d="M58.2999 154L64.1999 161.8C64.2999 162 64.5999 161.9 64.5999 161.7V154.2C64.5999 154.1 64.7 154 64.8 154H67.1999C67.2999 154 67.4 154.1 67.4 154.2V167.7C67.4 167.8 67.2999 167.9 67.1999 167.9H65C64.9 167.9 64.9 167.9 64.8 167.8L58.9 160C58.8 159.8 58.5 159.9 58.5 160.1V167.6C58.5 167.7 58.3999 167.8 58.2999 167.8H55.9C55.8 167.8 55.7 167.7 55.7 167.6V154.1C55.7 154 55.8 153.9 55.9 153.9H58.0999C58.1999 153.9 58.1999 154 58.2999 154Z" fill="#EFEEEE"/>
<path d="M81.6 155.6L80.5 157.2C80.3 157.4 80.2 157.5 80.1 157.4C78.6 156.5 77.5 156.3 76.5 156.3C74.2 156.3 72 158.4 72 160.9C72 163.4 74.2 165.5 76.5 165.5C77.9 165.5 78.7 165.2 79.7 164.7C79.8 164.7 79.8 164.6 79.8 164.5V162.9C79.8 162.8 79.7 162.7 79.6 162.7H78.2C78.1 162.7 78 162.6 78 162.5V160.2C78 160.1 78.1 160 78.2 160H82.2C82.3 160 82.4 160.1 82.4 160.2V166C82.4 166.1 82.4 166.1 82.3 166.2C81 167.2 79.5 168.4 76.4 168.4C72.6 168.4 69 165.6 69 161.1C69 156.6 72.6 153.8 76.4 153.8C78.1 153.8 79.9 154.3 81.5 155.4C81.7 155.3 81.7 155.4 81.6 155.6Z" fill="#EFEEEE"/>
<path d="M86.9001 154.2V167.7C86.9001 167.8 86.8001 167.9 86.7001 167.9H84.3001C84.2001 167.9 84.1001 167.8 84.1001 167.7V154.2C84.1001 154.1 84.2001 154 84.3001 154H86.7001C86.8001 153.9 86.9001 154 86.9001 154.2Z" fill="#EFEEEE"/>
<path d="M91.1 154L97 161.8C97.1 162 97.4 161.9 97.4 161.7V154.2C97.4 154.1 97.5 154 97.6 154H100C100.1 154 100.2 154.1 100.2 154.2V167.7C100.2 167.8 100.1 167.9 100 167.9H97.8C97.7 167.9 97.7 167.9 97.6 167.8L91.7 160C91.6 159.8 91.3 159.9 91.3 160.1V167.6C91.3 167.7 91.2 167.8 91.1 167.8H88.7C88.6 167.8 88.5 167.7 88.5 167.6V154.1C88.5 154 88.6 153.9 88.7 153.9H90.9C91 153.9 91.1 154 91.1 154Z" fill="#EFEEEE"/>
<path d="M111.2 154.2V156.6C111.2 156.7 111.1 156.8 111 156.8H105C104.9 156.8 104.8 156.9 104.8 157V159.3C104.8 159.4 104.9 159.5 105 159.5H110.7C110.8 159.5 110.9 159.6 110.9 159.7V161.8C110.9 161.9 110.8 162 110.7 162H105C104.9 162 104.8 162.1 104.8 162.2V164.5C104.8 164.6 104.9 164.7 105 164.7H110.9C111 164.7 111.1 164.8 111.1 164.9V167.3C111.1 167.4 111 167.5 110.9 167.5H102.2C102.1 167.5 102 167.4 102 167.3V153.8C102 153.7 102.1 153.6 102.2 153.6H110.9C111 153.9 111.2 154 111.2 154.2Z" fill="#EFEEEE"/>
<path d="M122 154.2V156.6C122 156.7 121.9 156.8 121.8 156.8H115.9C115.8 156.8 115.7 156.9 115.7 157V159.3C115.7 159.4 115.8 159.5 115.9 159.5H121.6C121.7 159.5 121.8 159.6 121.8 159.7V161.8C121.8 161.9 121.7 162 121.6 162H115.9C115.8 162 115.7 162.1 115.7 162.2V164.5C115.7 164.6 115.8 164.7 115.9 164.7H121.8C121.9 164.7 122 164.8 122 164.9V167.3C122 167.4 121.9 167.5 121.8 167.5H113C112.9 167.5 112.8 167.4 112.8 167.3V153.8C112.8 153.7 112.9 153.6 113 153.6H121.7C121.9 153.9 122 154 122 154.2Z" fill="#EFEEEE"/>
<path d="M128.7 153.9C131.6 153.9 134 156.4 134 159.4C134 161.5 132.8 163.4 131.1 164.3C131 164.4 130.9 164.6 131 164.7L133.9 167.5C134.1 167.7 133.9 167.9 133.7 167.9H130.6C130.5 167.9 130.5 167.9 130.4 167.8L127.4 164.9H126.3V167.7C126.3 167.8 126.2 167.9 126.1 167.9H123.8C123.7 167.9 123.6 167.8 123.6 167.7V154.2C123.6 154.1 123.7 154 123.8 154H128.7V153.9ZM126.4 161.8C126.4 161.9 126.5 162 126.6 162H128.6C129.9 162 131 160.9 131 159.3C131 157.7 129.9 156.6 128.6 156.6H126.6C126.5 156.6 126.4 156.7 126.4 156.8V161.8Z" fill="#EFEEEE"/>
<path d="M138.4 154.2V167.7C138.4 167.8 138.3 167.9 138.2 167.9H135.8C135.7 167.9 135.6 167.8 135.6 167.7V154.2C135.6 154.1 135.7 154 135.8 154H138.2C138.3 153.9 138.4 154 138.4 154.2Z" fill="#EFEEEE"/>
<path d="M142.6 154L148.5 161.8C148.6 162 148.9 161.9 148.9 161.7V154.2C148.9 154.1 149 154 149.1 154H151.5C151.6 154 151.7 154.1 151.7 154.2V167.7C151.7 167.8 151.6 167.9 151.5 167.9H149.3C149.2 167.9 149.2 167.9 149.1 167.8L143.2 160C143.1 159.8 142.8 159.9 142.8 160.1V167.6C142.8 167.7 142.7 167.8 142.6 167.8H140.2C140.1 167.8 140 167.7 140 167.6V154.1C140 154 140.1 153.9 140.2 153.9H142.4C142.5 153.9 142.6 154 142.6 154Z" fill="#EFEEEE"/>
<path d="M166 155.6L164.9 157.2C164.7 157.4 164.6 157.5 164.5 157.4C163 156.5 161.9 156.3 160.9 156.3C158.6 156.3 156.4 158.4 156.4 160.9C156.4 163.4 158.6 165.5 160.9 165.5C162.3 165.5 163.1 165.2 164.1 164.7C164.2 164.7 164.2 164.6 164.2 164.5V162.9C164.2 162.8 164.1 162.7 164 162.7H162.6C162.5 162.7 162.4 162.6 162.4 162.5V160.2C162.4 160.1 162.5 160 162.6 160H166.6C166.7 160 166.8 160.1 166.8 160.2V166C166.8 166.1 166.8 166.1 166.7 166.2C165.4 167.2 163.9 168.4 160.8 168.4C157 168.4 153.4 165.6 153.4 161.1C153.4 156.6 157 153.8 160.8 153.8C162.5 153.8 164.3 154.3 165.9 155.4C166 155.3 166 155.4 166 155.6Z" fill="#EFEEEE"/>
<path d="M193.8 171.4C193.8 171.5 193.8 171.6 193.7 171.6C193.4 171.8 193 171.7 192.3 171.7C191.4 171.6 189.8 170.6 189.6 170.3C189.3 170 188.9 169.6 188.6 169.2C188.3 168.8 187.9 168.4 187.6 167.9C187.3 167.5 187 167.1 186.7 166.8C186.6 166.7 186.5 166.7 186.4 166.8C185.8 167.2 185.1 167.5 184.3 167.7C183.5 167.9 182.7 167.9 181.8 167.9C181.1 167.9 180.5 167.8 179.8 167.6C179.2 167.4 178.6 167.1 178.1 166.7C177.6 166.3 177.2 165.8 176.9 165.2C176.6 164.6 176.4 163.9 176.4 163.2C176.4 162.6 176.5 162 176.7 161.4C176.9 160.9 177.2 160.4 177.5 159.9C177.8 159.5 178.2 159 178.6 158.7C179 158.3 179.4 158 179.9 157.7C179.6 157.3 179.3 157 179.1 156.7C178.9 156.4 178.7 156.1 178.6 155.8C178.5 155.5 178.4 155.3 178.3 155C178.2 154.7 178.2 154.4 178.2 154.1C178.2 153.5 178.3 153 178.6 152.4C178.8 151.9 179.2 151.5 179.6 151.2C180.1 150.9 180.6 150.6 181.1 150.4C181.7 150.2 182.3 150.1 182.9 150.1C183.5 150.1 184.1 150.2 184.7 150.4C185.2 150.6 185.7 150.8 186 151.2C186.4 151.5 186.6 151.9 186.8 152.4C187 152.8 187.1 153.3 187.1 153.8C187.1 154.3 187 154.8 186.8 155.3C186.6 155.7 186.4 156.2 186.1 156.5C185.8 156.9 185.5 157.2 185.1 157.5C184.8 157.7 184.5 158 184.2 158.2C184.1 158.3 184.1 158.4 184.1 158.5L186.9 162.5C187 162.6 187.2 162.6 187.3 162.5C187.7 162 188 161.5 188.2 160.9C188.4 160.3 188.6 159.7 188.6 159C188.6 158.9 188.7 158.8 188.8 158.8H191.3C191.4 158.8 191.6 158.9 191.5 159.1C191.3 160.1 191 161.1 190.6 162C190.2 162.9 189.6 163.8 188.8 164.7C188.7 164.8 188.7 164.9 188.8 165C189.3 165.7 191.2 168.5 191.6 168.9C192 169.3 192.6 169.7 193.6 169.6C193.7 169.6 193.9 169.7 193.9 169.8V171.4H193.8ZM181.4 159.8C181.1 160 180.8 160.2 180.6 160.4C180.4 160.6 180.2 160.8 180 161C179.8 161.2 179.7 161.5 179.7 161.8C179.6 162.1 179.6 162.5 179.6 162.9C179.6 163.2 179.7 163.6 179.8 163.9C179.9 164.2 180.1 164.5 180.4 164.7C180.7 164.9 180.9 165.1 181.2 165.2C181.5 165.3 181.8 165.4 182.1 165.4C183 165.4 183.8 165.2 184.6 164.8C184.7 164.7 184.8 164.6 184.7 164.5L181.4 159.8ZM184 153.9C184 153.5 183.9 153.1 183.7 152.9C183.5 152.6 183.1 152.5 182.6 152.5C182 152.5 181.6 152.6 181.4 152.9C181.2 153.2 181 153.6 181.1 153.9C181.1 154.1 181.2 154.3 181.2 154.4C181.3 154.6 181.4 154.8 181.6 155C181.7 155.2 181.9 155.4 182 155.6C182.1 155.8 182.3 155.9 182.4 156.1C182.8 155.9 183.2 155.5 183.6 155.2C183.9 154.8 184 154.4 184 153.9Z" fill="#EFEEEE"/>
<path d="M198.2 174.9C196.5 174.4 195 175.3 194.5 176.7C194.5 176.8 194.4 176.9 194.3 176.9H175.4C175.3 176.9 175.3 176.9 175.2 176.8L169.9 171.5C169.9 171.5 169.8 171.4 169.7 171.4H39.8C39.7 171.4 39.5 171.5 39.5 171.7V172.7C39.5 172.8 39.6 173 39.8 173H169.1C169.2 173 169.2 173 169.3 173.1L174.6 178.4C174.6 178.4 174.7 178.5 174.8 178.5H194.3C194.4 178.5 194.5 178.6 194.5 178.7C194.9 179.9 196 180.7 197.2 180.7C199.1 180.7 200.6 178.9 200 176.9C199.7 175.9 199 175.2 198.2 174.9ZM197.2 179.1C196.4 179.1 195.8 178.5 195.8 177.7C195.8 176.9 196.4 176.3 197.2 176.3C198 176.3 198.6 176.9 198.6 177.7C198.6 178.5 198 179.1 197.2 179.1Z" fill="#EFEEEE"/>
<path d="M196.9 148.3L191.6 143C191.6 143 191.5 142.9 191.4 142.9H171.9C171.8 142.9 171.7 142.8 171.7 142.7C171.2 141.3 169.7 140.3 168 140.9C167.1 141.2 166.4 141.9 166.2 142.7C165.6 144.7 167.1 146.5 169 146.5C170.3 146.5 171.4 145.7 171.7 144.5C171.7 144.4 171.8 144.3 171.9 144.3H190.8C190.9 144.3 190.9 144.3 191 144.4L196.3 149.7C196.3 149.7 196.4 149.8 196.5 149.8H316.8C316.9 149.8 317 149.7 317 149.6V148.6C317 148.5 316.9 148.4 316.8 148.4H197.1C197 148.4 197 148.4 196.9 148.3ZM168.9 145.1C168.1 145.1 167.5 144.5 167.5 143.7C167.5 142.9 168.1 142.3 168.9 142.3C169.7 142.3 170.3 142.9 170.3 143.7C170.4 144.5 169.7 145.1 168.9 145.1Z" fill="#EFEEEE"/>
<path d="M90.6 28.7H66C65.2 28.7 64.5 29.3 64.5 30.2L64.4 99C64.4 105.8 64.3 115.2 54.1 115.2C44.6 115.2 43.2 107.2 43 100.9C43 100.1 42.3 99.5 41.5 99.5H23.1C22.3 99.5 21.7 100.2 21.6 101C21.3 119.9 28.7 134.6 53.8 134.6C56 134.6 66.5 134.6 71.4 134.5C72 134.5 72.5 134.1 72.7 133.6L89.2 89.5C89.6 88.4 88.6 87.2999 87.5 87.5999L77.2 90.3C76.1 90.6 75.1 89.6 75.4 88.5L92 30.6C92.3 29.6 91.6 28.7 90.6 28.7Z" fill="#EFEEEE"/>
<path d="M160.6 134.5C161.4 134.5 162.1 133.8 162.1 133V114.7C162.1 113.9 161.4 113.2 160.6 113.2H116.2C115.4 113.2 114.7 112.5 114.7 111.7V92.2C114.7 91.4 115.4 90.7 116.2 90.7H158.9C159.7 90.7 160.4 90 160.4 89.2V72.7C160.4 71.9 159.7 71.2 158.9 71.2H116.2C115.4 71.2 114.7 70.5 114.7 69.7V51.7C114.7 50.9 115.4 50.2 116.2 50.2H160.6C161.4 50.2 162.1 49.5 162.1 48.7V30.2C162.1 29.4 161.5 28.7 160.6 28.7L123.8 28.6C123.2 28.6 122.7 28.9 122.5 29.4L101.8 73.2C101.3 74.3 102.2 75.4 103.3 75.3L114.6 73.6C115.9 73.4 116.7 74.8 116 75.9L75.5 134.4" fill="#4CC9F0"/>
<path d="M334.6 42.8L324.3 58.1C323.8 58.8 322.9 58.9 322.2 58.5C315.5 53.7 307.7 50.7 298.8 50.7C282.2 50.9 266 61.7 265.3 81.7C265.3 81.8 265.3 81.8 265.3 81.9C266 102 282.2 112.7 298.8 112.9C307.7 112.9 315.5 109.8 322.2 105.1C322.9 104.6 323.8 104.8 324.3 105.5L334.6 120.8C335 121.4 334.9 122.3 334.3 122.8C324.8 130.1 312.9 134.9 298.8 134.9C266.4 134.9 243.4 110.7 243.4 81.9C243.4 53.2 266.3 28.9 298.8 28.9C312.9 28.9 324.9 33.6 334.3 41C334.9 41.3 335 42.1 334.6 42.8Z" fill="#EFEEEE"/>
<path d="M239.4 49V30.2999C239.4 29.4999 238.8 28.7999 237.9 28.7999L169.3 28.7C168.5 28.7 167.8 29.4 167.8 30.2V133.1C167.8 133.9 168.5 134.6 169.3 134.6H237.9C238.7 134.6 239.4 133.9 239.4 133.1V114.8C239.4 114 238.7 113.3 237.9 113.3H193.5C192.7 113.3 192 112.6 192 111.8V92.3C192 91.5 192.7 90.8 193.5 90.8H236.2C237 90.8 237.7 90.1 237.7 89.3V72.8C237.7 72 237 71.3 236.2 71.3H193.5C192.7 71.3 192 70.6 192 69.8V51.7999C192 50.9999 192.7 50.2999 193.5 50.2999H238C238.8 50.3999 239.4 49.8 239.4 49Z" fill="#EFEEEE"/>
</svg>
