<svg xmlns="http://www.w3.org/2000/svg" viewBox="0 0 358.56 195.37"><defs><style>.cls-1{fill:#efeeee;}.cls-2{fill:#199cff;isolation:isolate;}</style></defs><g id="Simple_dark"><path class="cls-1" d="M210.57,154.16v2.38a.25.25,0,0,1-.24.25h-3.64a.24.24,0,0,0-.24.24v10.61a.25.25,0,0,1-.25.24h-2.44a.25.25,0,0,1-.25-.24V157a.24.24,0,0,0-.24-.24h-3.64a.25.25,0,0,1-.24-.25v-2.38a.24.24,0,0,1,.24-.24h10.7A.24.24,0,0,1,210.57,154.16Z"/><path class="cls-1" d="M221.41,154.17v2.36a.24.24,0,0,1-.24.24h-5.89a.25.25,0,0,0-.24.25v2.32a.25.25,0,0,0,.24.25h5.65a.25.25,0,0,1,.25.25V162a.25.25,0,0,1-.25.24h-5.65a.25.25,0,0,0-.24.25v2.33a.24.24,0,0,0,.24.24h5.89a.25.25,0,0,1,.24.25v2.36a.24.24,0,0,1-.24.24h-8.74a.24.24,0,0,1-.24-.24V154.17a.25.25,0,0,1,.24-.25h8.74A.25.25,0,0,1,221.41,154.17Z"/><path class="cls-1" d="M235.59,155.56l-1.38,2a.23.23,0,0,1-.34.06,5.49,5.49,0,0,0-3.19-1,4.31,4.31,0,1,0,0,8.59,5.5,5.5,0,0,0,3.19-1.06.24.24,0,0,1,.34.06l1.38,2a.24.24,0,0,1-.05.34,7.87,7.87,0,0,1-4.87,1.64,7.33,7.33,0,1,1,0-14.64,7.93,7.93,0,0,1,4.87,1.64A.24.24,0,0,1,235.59,155.56Z"/><path class="cls-1" d="M239.77,154.16v5.07a.25.25,0,0,0,.25.24h4.82a.25.25,0,0,0,.25-.24v-5.07a.25.25,0,0,1,.25-.24h2.35a.25.25,0,0,1,.25.24v13.48a.25.25,0,0,1-.25.24h-2.35a.25.25,0,0,1-.25-.24v-5.07a.25.25,0,0,0-.25-.24H240a.25.25,0,0,0-.25.24v5.07a.24.24,0,0,1-.24.24h-2.36a.24.24,0,0,1-.24-.24V154.16a.24.24,0,0,1,.24-.24h2.36A.24.24,0,0,1,239.77,154.16Z"/><path class="cls-1" d="M264.77,154.16v2.38a.25.25,0,0,1-.25.25h-3.63a.25.25,0,0,0-.25.24v10.61a.25.25,0,0,1-.25.24H258a.25.25,0,0,1-.25-.24V157a.24.24,0,0,0-.24-.24h-3.63a.25.25,0,0,1-.25-.25v-2.38a.25.25,0,0,1,.25-.24h10.69A.25.25,0,0,1,264.77,154.16Z"/><path class="cls-1" d="M273.47,154.08l4.91,13.47a.25.25,0,0,1-.23.33h-2.5a.24.24,0,0,1-.23-.16l-1-2.67a.25.25,0,0,0-.23-.16h-4.64a.25.25,0,0,0-.23.16l-1,2.67a.25.25,0,0,1-.23.16h-2.5a.25.25,0,0,1-.23-.33l4.91-13.47a.25.25,0,0,1,.23-.16h2.68A.25.25,0,0,1,273.47,154.08Zm-2.67,8H273a.25.25,0,0,0,.23-.33l-1.1-3a.24.24,0,0,0-.46,0l-1.1,3A.25.25,0,0,0,270.8,162Z"/><path class="cls-1" d="M282.49,154.16v10.62a.25.25,0,0,0,.25.25h5.85a.25.25,0,0,1,.24.25v2.36a.24.24,0,0,1-.24.24H279.8a.24.24,0,0,1-.24-.24V154.16a.24.24,0,0,1,.24-.24h2.45A.24.24,0,0,1,282.49,154.16Z"/><path class="cls-1" d="M293.27,154.16v6.63a.25.25,0,0,0,.44.15l5.51-6.93a.25.25,0,0,1,.2-.09h3a.24.24,0,0,1,.19.4l-5.11,6.44a.23.23,0,0,0,0,.31l5.11,6.41a.25.25,0,0,1-.19.4h-3a.25.25,0,0,1-.2-.09l-3.46-4.36a.23.23,0,0,0-.38,0l-2,2.55a.25.25,0,0,0-.06.16v1.5a.24.24,0,0,1-.24.24h-2.34a.25.25,0,0,1-.25-.24V154.16a.25.25,0,0,1,.25-.24H293A.24.24,0,0,1,293.27,154.16Z"/><path class="cls-1" d="M312.32,155.1,311,157a.26.26,0,0,1-.33.07,4.33,4.33,0,0,0-2.2-.66c-.78,0-1.66.45-1.66,1.29s1.49,1.29,2.24,1.53c2.33.63,4.26,2.06,4.26,4.43h0a4.68,4.68,0,0,1-4.93,4.54,7.8,7.8,0,0,1-4.77-1.66.25.25,0,0,1-.06-.33l1.2-2a.26.26,0,0,1,.36-.07,5.58,5.58,0,0,0,3.23,1.2c1,0,2.06-.47,2.06-1.63s-1.54-1.51-2.5-1.8c-2-.54-4-1.74-4-4.17a4.38,4.38,0,0,1,4.57-4.13,6.62,6.62,0,0,1,3.78,1.17A.24.24,0,0,1,312.32,155.1Z"/><path class="cls-1" d="M54.06,154.16v2.37a.25.25,0,0,1-.25.24H47.92a.24.24,0,0,0-.24.24v2.34a.24.24,0,0,0,.24.24h5.66a.24.24,0,0,1,.24.24V162a.24.24,0,0,1-.24.24H47.92a.24.24,0,0,0-.24.24v2.34a.24.24,0,0,0,.24.24h5.89a.25.25,0,0,1,.25.24v2.37a.25.25,0,0,1-.25.24H45.07a.24.24,0,0,1-.24-.24V154.16a.24.24,0,0,1,.24-.24h8.74A.25.25,0,0,1,54.06,154.16Z"/><path class="cls-1" d="M58.28,154l5.93,7.8a.24.24,0,0,0,.43-.15v-7.5a.24.24,0,0,1,.24-.24h2.37a.24.24,0,0,1,.24.24v13.48a.24.24,0,0,1-.24.24H65.06a.23.23,0,0,1-.19-.09L59,160a.25.25,0,0,0-.44.15v7.5a.24.24,0,0,1-.24.24H55.91a.25.25,0,0,1-.25-.24V154.16a.25.25,0,0,1,.25-.24h2.18A.22.22,0,0,1,58.28,154Zm-2.62,13.87"/><path class="cls-1" d="M81.64,155.55l-1.11,1.65c-.16.24-.3.25-.41.19a6.24,6.24,0,0,0-3.64-1.06,4.57,4.57,0,0,0,0,9.14,6.22,6.22,0,0,0,3.23-.81.26.26,0,0,0,.13-.22v-1.6a.24.24,0,0,0-.24-.25H78.24a.23.23,0,0,1-.24-.24v-2.27a.23.23,0,0,1,.24-.24h4a.24.24,0,0,1,.24.24v5.75a.22.22,0,0,1-.09.19,8.32,8.32,0,0,1-5.9,2.2,7.32,7.32,0,1,1,0-14.64,9.18,9.18,0,0,1,5.09,1.63A.25.25,0,0,1,81.64,155.55Z"/><path class="cls-1" d="M86.91,154.16v13.48a.24.24,0,0,1-.24.24H84.31a.24.24,0,0,1-.24-.24V154.16a.24.24,0,0,1,.24-.24h2.36A.24.24,0,0,1,86.91,154.16Z"/><path class="cls-1" d="M91.13,154l5.92,7.8a.25.25,0,0,0,.44-.15v-7.5a.24.24,0,0,1,.24-.24h2.37a.24.24,0,0,1,.24.24v13.48a.24.24,0,0,1-.24.24H97.91a.23.23,0,0,1-.19-.09L91.8,160a.25.25,0,0,0-.44.15v7.5a.24.24,0,0,1-.24.24H88.75a.24.24,0,0,1-.24-.24V154.16a.24.24,0,0,1,.24-.24h2.19A.23.23,0,0,1,91.13,154Zm-2.62,13.87"/><path class="cls-1" d="M111.16,154.16v2.37a.24.24,0,0,1-.24.24H105a.24.24,0,0,0-.24.24v2.34a.24.24,0,0,0,.24.24h5.66a.24.24,0,0,1,.24.24V162a.24.24,0,0,1-.24.24H105a.24.24,0,0,0-.24.24v2.34a.24.24,0,0,0,.24.24h5.9a.24.24,0,0,1,.24.24v2.37a.24.24,0,0,1-.24.24h-8.75a.24.24,0,0,1-.24-.24V154.16a.24.24,0,0,1,.24-.24h8.75A.24.24,0,0,1,111.16,154.16Z"/><path class="cls-1" d="M122,154.16v2.37a.24.24,0,0,1-.24.24h-5.9a.24.24,0,0,0-.24.24v2.34a.24.24,0,0,0,.24.24h5.66a.24.24,0,0,1,.24.24V162a.24.24,0,0,1-.24.24h-5.66a.24.24,0,0,0-.24.24v2.34a.24.24,0,0,0,.24.24h5.9a.24.24,0,0,1,.24.24v2.37a.24.24,0,0,1-.24.24H113a.24.24,0,0,1-.24-.24V154.16a.24.24,0,0,1,.24-.24h8.74A.24.24,0,0,1,122,154.16Z"/><path class="cls-1" d="M128.71,153.92A5.39,5.39,0,0,1,134,159.4a5.57,5.57,0,0,1-2.86,4.88.24.24,0,0,0-.07.38l2.86,2.81a.24.24,0,0,1-.17.41h-3.09a.21.21,0,0,1-.17-.07l-3-2.92h-1.08v2.75a.24.24,0,0,1-.24.24h-2.35a.24.24,0,0,1-.24-.24V154.16a.24.24,0,0,1,.24-.24Zm-2.28,7.89a.24.24,0,0,0,.24.24h2a2.66,2.66,0,0,0,0-5.3h-2a.24.24,0,0,0-.24.24Z"/><path class="cls-1" d="M138.38,154.16v13.48a.24.24,0,0,1-.24.24h-2.36a.24.24,0,0,1-.24-.24V154.16a.24.24,0,0,1,.24-.24h2.36A.24.24,0,0,1,138.38,154.16Z"/><path class="cls-1" d="M142.6,154l5.92,7.8a.25.25,0,0,0,.44-.15v-7.5a.24.24,0,0,1,.24-.24h2.36a.25.25,0,0,1,.25.24v13.48a.25.25,0,0,1-.25.24h-2.18a.22.22,0,0,1-.19-.09l-5.92-7.8a.25.25,0,0,0-.44.15v7.5a.24.24,0,0,1-.24.24h-2.37a.24.24,0,0,1-.24-.24V154.16a.24.24,0,0,1,.24-.24h2.19A.23.23,0,0,1,142.6,154ZM140,167.88"/><path class="cls-1" d="M166,155.55l-1.11,1.65c-.16.23-.3.25-.41.19a6.24,6.24,0,0,0-3.64-1.06,4.57,4.57,0,0,0,0,9.14,6.22,6.22,0,0,0,3.23-.81.26.26,0,0,0,.13-.22v-1.6a.24.24,0,0,0-.24-.25h-1.36a.24.24,0,0,1-.25-.24v-2.27a.24.24,0,0,1,.25-.24h4a.24.24,0,0,1,.24.24v5.75a.25.25,0,0,1-.09.19,8.32,8.32,0,0,1-5.9,2.2,7.32,7.32,0,1,1,0-14.64,9.18,9.18,0,0,1,5.09,1.63A.25.25,0,0,1,166,155.55Z"/><path class="cls-1" d="M193.81,171.38a.23.23,0,0,1-.11.2,2.75,2.75,0,0,1-1.44.1,6.86,6.86,0,0,1-2.73-1.37c-.32-.31-.65-.67-1-1.07s-.69-.82-1-1.27-.6-.76-.88-1.14a.23.23,0,0,0-.3-.05,6.05,6.05,0,0,1-2.08.87,12.74,12.74,0,0,1-2.46.24,6.16,6.16,0,0,1-3.72-1.28,4.62,4.62,0,0,1-1.23-1.51,4.17,4.17,0,0,1-.47-2,5.12,5.12,0,0,1,.31-1.82,6.12,6.12,0,0,1,.78-1.5,7.16,7.16,0,0,1,1.11-1.22,9.55,9.55,0,0,1,1.3-1c-.31-.39-.58-.73-.79-1a7.86,7.86,0,0,1-.54-.87,3.84,3.84,0,0,1-.32-.83,3.71,3.71,0,0,1-.1-.88,3.57,3.57,0,0,1,.38-1.66,3.47,3.47,0,0,1,1-1.22,4.88,4.88,0,0,1,1.51-.76,6.06,6.06,0,0,1,1.79-.26,5.28,5.28,0,0,1,1.81.29,4,4,0,0,1,1.34.8,3.37,3.37,0,0,1,.83,1.18,3.72,3.72,0,0,1,.28,1.4,3.78,3.78,0,0,1-.28,1.45,4.93,4.93,0,0,1-.73,1.23,7,7,0,0,1-1,1,10.41,10.41,0,0,1-.92.68.22.22,0,0,0-.06.32l2.83,4a.24.24,0,0,0,.37,0,6.37,6.37,0,0,0,.91-1.58,6.51,6.51,0,0,0,.4-1.85.22.22,0,0,1,.22-.21h2.48a.23.23,0,0,1,.23.27,16.64,16.64,0,0,1-.85,2.93,8.36,8.36,0,0,1-1.83,2.66.23.23,0,0,0,0,.28,45.07,45.07,0,0,0,2.79,3.89,2.4,2.4,0,0,0,2,.68.24.24,0,0,1,.27.22Zm-12.42-11.61c-.31.23-.58.44-.8.64a2.82,2.82,0,0,0-.55.64,2.72,2.72,0,0,0-.34.8,4.2,4.2,0,0,0-.11,1.06,2.18,2.18,0,0,0,.81,1.77,3.27,3.27,0,0,0,.83.48,2.75,2.75,0,0,0,1,.17,5.3,5.3,0,0,0,2.5-.57.24.24,0,0,0,.08-.34Zm2.65-5.89a1.58,1.58,0,0,0-.31-1,1.29,1.29,0,0,0-1.06-.38,1.46,1.46,0,0,0-1.2.43,1.53,1.53,0,0,0-.34,1,1.29,1.29,0,0,0,.14.51,5.58,5.58,0,0,0,.35.63l.41.61a4.49,4.49,0,0,0,.35.46,4.28,4.28,0,0,0,1.15-.93,1.94,1.94,0,0,0,.51-1.31Z"/><path class="cls-1" d="M198.16,174.91a2.89,2.89,0,0,0-3.66,1.84.24.24,0,0,1-.23.17h-18.9a.29.29,0,0,1-.18-.07l-5.29-5.3a.23.23,0,0,0-.17-.07H39.78a.25.25,0,0,0-.25.25v1a.25.25,0,0,0,.25.25H169.1a.24.24,0,0,1,.18.07l5.29,5.3a.29.29,0,0,0,.18.07h19.52a.24.24,0,0,1,.23.17,2.91,2.91,0,1,0,5.51-1.85A2.8,2.8,0,0,0,198.16,174.91Zm-.91,4.17a1.41,1.41,0,1,1,1.41-1.41A1.41,1.41,0,0,1,197.25,179.08Z"/><path class="cls-1" d="M196.91,148.35l-5.33-5.3a.22.22,0,0,0-.17-.07H171.92a.25.25,0,0,1-.23-.18A2.91,2.91,0,0,0,168,141a2.84,2.84,0,0,0-1.85,1.83,2.91,2.91,0,1,0,5.51,1.86.24.24,0,0,1,.23-.17h18.87a.22.22,0,0,1,.17.07l5.33,5.3a.29.29,0,0,0,.18.07H316.78a.25.25,0,0,0,.25-.25v-1a.25.25,0,0,0-.25-.25H197.09A.29.29,0,0,1,196.91,148.35Zm-28-3.23a1.41,1.41,0,1,1,1.4-1.41A1.41,1.41,0,0,1,169,145.12Z"/><path class="cls-1" d="M89.59,28.72H65a1.45,1.45,0,0,0-1.46,1.45L63.41,99c0,6.85-.1,16.22-10.32,16.22-9.48,0-10.93-8-11.09-14.29a1.44,1.44,0,0,0-1.45-1.41H22.19A1.47,1.47,0,0,0,20.74,101c-.27,18.88,7.07,33.61,32.16,33.6,2.23,0,12.74,0,17.63-.05a1.45,1.45,0,0,0,1.33-.95L88.4,89.44a1.46,1.46,0,0,0-1.73-1.92L76.36,90.24a1.45,1.45,0,0,1-1.77-1.8L91,30.57A1.45,1.45,0,0,0,89.59,28.72Z"/><path class="cls-2" d="M160.59,134.55a1.47,1.47,0,0,0,1.46-1.46v-18.3a1.45,1.45,0,0,0-1.46-1.45h-44.4a1.45,1.45,0,0,1-1.45-1.46V92.15a1.45,1.45,0,0,1,1.45-1.45h42.65a1.46,1.46,0,0,0,1.46-1.46V72.69a1.45,1.45,0,0,0-1.46-1.45H116.19a1.45,1.45,0,0,1-1.45-1.46v-18a1.45,1.45,0,0,1,1.45-1.45h44.4a1.46,1.46,0,0,0,1.46-1.46V30.24a1.47,1.47,0,0,0-1.46-1.46l-36.82-.06a1.46,1.46,0,0,0-1.32.83L101.77,73.39a1.46,1.46,0,0,0,1.54,2.06l11.31-1.75A1.46,1.46,0,0,1,116,76L75.52,134.48"/><path class="cls-1" d="M334.57,42.78,324.23,58.1a1.46,1.46,0,0,1-2.06.35,39.88,39.88,0,0,0-23.38-7.82c-16.65.23-32.76,11-33.51,31v.17c.75,20,16.86,30.78,33.51,31A39.81,39.81,0,0,0,322.17,105a1.47,1.47,0,0,1,2.06.36l10.34,15.32a1.45,1.45,0,0,1-.3,2,57.09,57.09,0,0,1-35.52,12.06c-32.44,0-55.36-24.24-55.36-53s22.92-53,55.36-53a57.1,57.1,0,0,1,35.52,12.07A1.45,1.45,0,0,1,334.57,42.78Z"/><path class="cls-1" d="M239.43,49V30.35A1.47,1.47,0,0,0,238,28.89l-68.65-.1a1.45,1.45,0,0,0-1.45,1.46V133.17a1.45,1.45,0,0,0,1.45,1.46l68.64,0a1.46,1.46,0,0,0,1.46-1.46V114.9a1.45,1.45,0,0,0-1.46-1.45h-44.4a1.45,1.45,0,0,1-1.45-1.46V92.26a1.45,1.45,0,0,1,1.45-1.45h42.65a1.46,1.46,0,0,0,1.46-1.46V72.8a1.45,1.45,0,0,0-1.46-1.45H193.57a1.45,1.45,0,0,1-1.45-1.46v-18a1.45,1.45,0,0,1,1.45-1.45H238A1.46,1.46,0,0,0,239.43,49Z"/></g></svg>