<svg width="15" height="22" viewBox="0 0 15 22" fill="none" xmlns="http://www.w3.org/2000/svg">
<path d="M0 11.5909C0 10.8676 0.287337 10.1739 0.7988 9.66246C1.31026 9.151 2.00396 8.86366 2.72727 8.86366H12.2727C12.996 8.86366 13.6897 9.151 14.2012 9.66246C14.7127 10.1739 15 10.8676 15 11.5909V18.4091C15 19.1324 14.7127 19.8261 14.2012 20.3376C13.6897 20.849 12.996 21.1364 12.2727 21.1364H2.72727C2.00396 21.1364 1.31026 20.849 0.7988 20.3376C0.287337 19.8261 0 19.1324 0 18.4091V11.5909Z" fill="white"/>
<path fill-rule="evenodd" clip-rule="evenodd" d="M2.72729 4.77272C2.72729 3.50692 3.23013 2.29296 4.12519 1.3979C5.02025 0.502839 6.23422 0 7.50002 0C8.76583 0 9.97979 0.502839 10.8749 1.3979C11.7699 2.29296 12.2727 3.50692 12.2727 4.77272V8.86363H10.9091V4.77272C10.9091 3.86858 10.5499 3.00146 9.91061 2.36213C9.27129 1.72281 8.40417 1.36364 7.50002 1.36364C6.59588 1.36364 5.72876 1.72281 5.08943 2.36213C4.4501 3.00146 4.09093 3.86858 4.09093 4.77272V8.86363H2.72729V4.77272Z" fill="white"/>
</svg>
