<svg width="24" height="18" viewBox="0 0 24 18" fill="none" xmlns="http://www.w3.org/2000/svg">
<path fill-rule="evenodd" clip-rule="evenodd" d="M9.00146 15.75C9.00146 15.9489 9.08048 16.1397 9.22113 16.2803C9.36179 16.421 9.55255 16.5 9.75146 16.5H21.7515C21.9504 16.5 22.1411 16.421 22.2818 16.2803C22.4224 16.1397 22.5015 15.9489 22.5015 15.75V2.25C22.5015 2.05109 22.4224 1.86032 22.2818 1.71967C22.1411 1.57902 21.9504 1.5 21.7515 1.5H9.75146C9.55255 1.5 9.36179 1.57902 9.22113 1.71967C9.08048 1.86032 9.00146 2.05109 9.00146 2.25V5.25C9.00146 5.44891 8.92245 5.63968 8.78179 5.78033C8.64114 5.92098 8.45038 6 8.25146 6C8.05255 6 7.86179 5.92098 7.72113 5.78033C7.58048 5.63968 7.50146 5.44891 7.50146 5.25V2.25C7.50146 1.65326 7.73852 1.08097 8.16047 0.65901C8.58243 0.237053 9.15473 0 9.75146 0H21.7515C22.3482 0 22.9205 0.237053 23.3425 0.65901C23.7644 1.08097 24.0015 1.65326 24.0015 2.25V15.75C24.0015 16.3467 23.7644 16.919 23.3425 17.341C22.9205 17.7629 22.3482 18 21.7515 18H9.75146C9.15473 18 8.58243 17.7629 8.16047 17.341C7.73852 16.919 7.50146 16.3467 7.50146 15.75V12.75C7.50146 12.5511 7.58048 12.3603 7.72113 12.2197C7.86179 12.079 8.05255 12 8.25146 12C8.45038 12 8.64114 12.079 8.78179 12.2197C8.92245 12.3603 9.00146 12.5511 9.00146 12.75V15.75Z" fill="white"/>
<path fill-rule="evenodd" clip-rule="evenodd" d="M0.220341 9.53085C0.150496 9.46118 0.0950816 9.37842 0.0572719 9.2873C0.0194622 9.19618 0 9.0985 0 8.99985C0 8.9012 0.0194622 8.80352 0.0572719 8.7124C0.0950816 8.62128 0.150496 8.53852 0.220341 8.46885L4.72034 3.96885C4.79007 3.89912 4.87286 3.8438 4.96397 3.80606C5.05507 3.76833 5.15272 3.7489 5.25134 3.7489C5.34996 3.7489 5.44761 3.76833 5.53872 3.80606C5.62983 3.8438 5.71261 3.89912 5.78234 3.96885C5.85207 4.03858 5.90739 4.12136 5.94513 4.21247C5.98286 4.30358 6.00229 4.40123 6.00229 4.49985C6.00229 4.59846 5.98286 4.69612 5.94513 4.78722C5.90739 4.87833 5.85207 4.96112 5.78234 5.03085L2.56184 8.24985H15.7513C15.9503 8.24985 16.141 8.32887 16.2817 8.46952C16.4223 8.61017 16.5013 8.80094 16.5013 8.99985C16.5013 9.19876 16.4223 9.38953 16.2817 9.53018C16.141 9.67083 15.9503 9.74985 15.7513 9.74985H2.56184L5.78234 12.9688C5.85207 13.0386 5.90739 13.1214 5.94513 13.2125C5.98286 13.3036 6.00229 13.4012 6.00229 13.4998C6.00229 13.5985 5.98286 13.6961 5.94513 13.7872C5.90739 13.8783 5.85207 13.9611 5.78234 14.0308C5.71261 14.1006 5.62983 14.1559 5.53872 14.1936C5.44761 14.2314 5.34996 14.2508 5.25134 14.2508C5.15272 14.2508 5.05507 14.2314 4.96397 14.1936C4.87286 14.1559 4.79007 14.1006 4.72034 14.0308L0.220341 9.53085Z" fill="white"/>
</svg>
