<svg width="211" height="185" viewBox="0 0 211 185" fill="none" xmlns="http://www.w3.org/2000/svg">
<path d="M52.75 118.822C52.75 115.321 54.1394 111.962 56.6125 109.487C59.0857 107.011 62.44 105.62 65.9375 105.62C69.435 105.62 72.7893 107.011 75.2625 109.487C77.7356 111.962 79.125 115.321 79.125 118.822V145.227C79.125 148.729 77.7356 152.087 75.2625 154.563C72.7893 157.038 69.435 158.429 65.9375 158.429C62.44 158.429 59.0857 157.038 56.6125 154.563C54.1394 152.087 52.75 148.729 52.75 145.227V118.822ZM92.3125 118.822C92.3125 115.321 93.7019 111.962 96.175 109.487C98.6482 107.011 102.002 105.62 105.5 105.62C108.998 105.62 112.352 107.011 114.825 109.487C117.298 111.962 118.688 115.321 118.688 118.822V145.227C118.688 148.729 117.298 152.087 114.825 154.563C112.352 157.038 108.998 158.429 105.5 158.429C102.002 158.429 98.6482 157.038 96.175 154.563C93.7019 152.087 92.3125 148.729 92.3125 145.227V118.822ZM131.875 118.822C131.875 115.321 133.264 111.962 135.738 109.487C138.211 107.011 141.565 105.62 145.062 105.62C148.56 105.62 151.914 107.011 154.387 109.487C156.861 111.962 158.25 115.321 158.25 118.822V145.227C158.25 148.729 156.861 152.087 154.387 154.563C151.914 157.038 148.56 158.429 145.062 158.429C141.565 158.429 138.211 157.038 135.738 154.563C133.264 152.087 131.875 148.729 131.875 145.227V118.822Z" fill="#199CFF"/>
<path fill-rule="evenodd" clip-rule="evenodd" d="M75.9204 0.939004C76.6635 1.38447 77.3116 1.97213 77.8278 2.66842C78.3439 3.3647 78.718 4.15597 78.9287 4.99702C79.1393 5.83808 79.1824 6.71243 79.0554 7.57015C78.9284 8.42787 78.6339 9.25214 78.1887 9.99589L44.6133 66.0139H166.387L132.798 9.99589C131.899 8.49374 131.633 6.69564 132.059 4.99714C132.484 3.29865 133.566 1.83889 135.066 0.939004C136.567 0.0391163 138.363 -0.227188 140.059 0.198674C141.756 0.624535 143.214 1.70768 144.113 3.20983L181.763 66.0139H204.406C206.155 66.0139 207.832 66.7094 209.069 67.9474C210.305 69.1853 211 70.8644 211 72.6151V85.8176C211 87.5683 210.305 89.2474 209.069 90.4854C207.832 91.7233 206.155 92.4188 204.406 92.4188H196.19L171.873 177.654C171.282 179.725 170.033 181.546 168.314 182.842C166.596 184.139 164.503 184.838 162.351 184.836H48.6619C46.5105 184.838 44.4171 184.139 42.6989 182.842C40.9807 181.546 39.7314 179.725 39.1405 177.654L14.8096 92.4188H6.59375C4.84498 92.4188 3.16783 91.7233 1.93126 90.4854C0.694697 89.2474 0 87.5683 0 85.8176V72.6151C0 70.8644 0.694697 69.1853 1.93126 67.9474C3.16783 66.7094 4.84498 66.0139 6.59375 66.0139H29.2367L66.8606 3.20983C67.3056 2.46592 67.8926 1.81707 68.5881 1.30032C69.2836 0.783578 70.0739 0.409071 70.914 0.198195C71.7541 -0.0126809 72.6275 -0.0557942 73.4843 0.0713156C74.341 0.198425 75.1643 0.493268 75.9072 0.939004H75.9204ZM28.5246 92.4188L51.1279 171.634H159.872L182.475 92.4188H28.5246Z" fill="#199CFF"/>
</svg>
