<svg width="120" height="120" viewBox="0 0 120 120" fill="none" xmlns="http://www.w3.org/2000/svg">
<path fill-rule="evenodd" clip-rule="evenodd" d="M11.25 7.5C10.2554 7.5 9.30161 7.89509 8.59835 8.59835C7.89509 9.30161 7.5 10.2554 7.5 11.25V33.75C7.5 34.7446 7.10491 35.6984 6.40165 36.4016C5.69839 37.1049 4.74456 37.5 3.75 37.5C2.75544 37.5 1.80161 37.1049 1.09835 36.4016C0.395088 35.6984 0 34.7446 0 33.75V11.25C0 8.26631 1.18526 5.40483 3.29505 3.29505C5.40483 1.18526 8.26631 0 11.25 0L33.75 0C34.7446 0 35.6984 0.395088 36.4016 1.09835C37.1049 1.80161 37.5 2.75544 37.5 3.75C37.5 4.74456 37.1049 5.69839 36.4016 6.40165C35.6984 7.10491 34.7446 7.5 33.75 7.5H11.25ZM82.5 3.75C82.5 2.75544 82.8951 1.80161 83.5983 1.09835C84.3016 0.395088 85.2554 0 86.25 0L108.75 0C111.734 0 114.595 1.18526 116.705 3.29505C118.815 5.40483 120 8.26631 120 11.25V33.75C120 34.7446 119.605 35.6984 118.902 36.4016C118.198 37.1049 117.245 37.5 116.25 37.5C115.255 37.5 114.302 37.1049 113.598 36.4016C112.895 35.6984 112.5 34.7446 112.5 33.75V11.25C112.5 10.2554 112.105 9.30161 111.402 8.59835C110.698 7.89509 109.745 7.5 108.75 7.5H86.25C85.2554 7.5 84.3016 7.10491 83.5983 6.40165C82.8951 5.69839 82.5 4.74456 82.5 3.75ZM3.75 82.5C4.74456 82.5 5.69839 82.8951 6.40165 83.5983C7.10491 84.3016 7.5 85.2554 7.5 86.25V108.75C7.5 109.745 7.89509 110.698 8.59835 111.402C9.30161 112.105 10.2554 112.5 11.25 112.5H33.75C34.7446 112.5 35.6984 112.895 36.4016 113.598C37.1049 114.302 37.5 115.255 37.5 116.25C37.5 117.245 37.1049 118.198 36.4016 118.902C35.6984 119.605 34.7446 120 33.75 120H11.25C8.26631 120 5.40483 118.815 3.29505 116.705C1.18526 114.595 0 111.734 0 108.75L0 86.25C0 85.2554 0.395088 84.3016 1.09835 83.5983C1.80161 82.8951 2.75544 82.5 3.75 82.5ZM116.25 82.5C117.245 82.5 118.198 82.8951 118.902 83.5983C119.605 84.3016 120 85.2554 120 86.25V108.75C120 111.734 118.815 114.595 116.705 116.705C114.595 118.815 111.734 120 108.75 120H86.25C85.2554 120 84.3016 119.605 83.5983 118.902C82.8951 118.198 82.5 117.245 82.5 116.25C82.5 115.255 82.8951 114.302 83.5983 113.598C84.3016 112.895 85.2554 112.5 86.25 112.5H108.75C109.745 112.5 110.698 112.105 111.402 111.402C112.105 110.698 112.5 109.745 112.5 108.75V86.25C112.5 85.2554 112.895 84.3016 113.598 83.5983C114.302 82.8951 115.255 82.5 116.25 82.5Z" fill="#199CFF"/>
<path d="M22.5 33.75C22.5 32.7554 22.8951 31.8016 23.5984 31.0984C24.3016 30.3951 25.2554 30 26.25 30C27.2446 30 28.1984 30.3951 28.9016 31.0984C29.6049 31.8016 30 32.7554 30 33.75V86.25C30 87.2446 29.6049 88.1984 28.9016 88.9017C28.1984 89.6049 27.2446 90 26.25 90C25.2554 90 24.3016 89.6049 23.5984 88.9017C22.8951 88.1984 22.5 87.2446 22.5 86.25V33.75ZM37.5 33.75C37.5 32.7554 37.8951 31.8016 38.5984 31.0984C39.3016 30.3951 40.2554 30 41.25 30C42.2446 30 43.1984 30.3951 43.9016 31.0984C44.6049 31.8016 45 32.7554 45 33.75V86.25C45 87.2446 44.6049 88.1984 43.9016 88.9017C43.1984 89.6049 42.2446 90 41.25 90C40.2554 90 39.3016 89.6049 38.5984 88.9017C37.8951 88.1984 37.5 87.2446 37.5 86.25V33.75ZM52.5 33.75C52.5 32.7554 52.8951 31.8016 53.5984 31.0984C54.3016 30.3951 55.2554 30 56.25 30C57.2446 30 58.1984 30.3951 58.9016 31.0984C59.6049 31.8016 60 32.7554 60 33.75V86.25C60 87.2446 59.6049 88.1984 58.9016 88.9017C58.1984 89.6049 57.2446 90 56.25 90C55.2554 90 54.3016 89.6049 53.5984 88.9017C52.8951 88.1984 52.5 87.2446 52.5 86.25V33.75ZM67.5 33.75C67.5 32.7554 67.8951 31.8016 68.5983 31.0984C69.3016 30.3951 70.2554 30 71.25 30H78.75C79.7446 30 80.6984 30.3951 81.4017 31.0984C82.1049 31.8016 82.5 32.7554 82.5 33.75V86.25C82.5 87.2446 82.1049 88.1984 81.4017 88.9017C80.6984 89.6049 79.7446 90 78.75 90H71.25C70.2554 90 69.3016 89.6049 68.5983 88.9017C67.8951 88.1984 67.5 87.2446 67.5 86.25V33.75ZM90 33.75C90 32.7554 90.3951 31.8016 91.0983 31.0984C91.8016 30.3951 92.7554 30 93.75 30C94.7446 30 95.6984 30.3951 96.4017 31.0984C97.1049 31.8016 97.5 32.7554 97.5 33.75V86.25C97.5 87.2446 97.1049 88.1984 96.4017 88.9017C95.6984 89.6049 94.7446 90 93.75 90C92.7554 90 91.8016 89.6049 91.0983 88.9017C90.3951 88.1984 90 87.2446 90 86.25V33.75Z" fill="#199CFF"/>
</svg>
