<svg width="46" height="43" viewBox="0 0 46 43" fill="none" xmlns="http://www.w3.org/2000/svg">
<path fill-rule="evenodd" clip-rule="evenodd" d="M8.53875 1.00333C8.80867 0.688672 9.14376 0.436051 9.52095 0.262848C9.89814 0.0896452 10.3085 -2.72352e-05 10.7238 6.20485e-09H35.2763C35.6915 -2.72352e-05 36.1019 0.0896452 36.4791 0.262848C36.8562 0.436051 37.1913 0.688672 37.4613 1.00333L44.9621 9.72947C45.6318 10.5087 46 11.5011 46 12.5273V13.2583C46.0002 14.6773 45.5557 16.0608 44.7287 17.2155C43.9018 18.3703 42.7336 19.2386 41.3876 19.699C40.0415 20.1594 38.5848 20.189 37.2211 19.7836C35.8573 19.3783 34.6547 18.5581 33.7812 17.4379C33.1434 18.2571 32.326 18.9199 31.3916 19.3756C30.4573 19.8312 29.4307 20.0676 28.3906 20.0667C27.3505 20.0678 26.3239 19.8315 25.3895 19.3759C24.4551 18.9202 23.6377 18.2573 23 17.4379C22.3623 18.2573 21.5449 18.9202 20.6105 19.3759C19.6761 19.8315 18.6495 20.0678 17.6094 20.0667C16.5692 20.0678 15.5426 19.8315 14.6082 19.3759C13.6738 18.9202 12.8564 18.2573 12.2188 17.4379C11.3453 18.5581 10.1427 19.3783 8.77892 19.7836C7.41518 20.189 5.95848 20.1594 4.61243 19.699C3.26638 19.2386 2.09824 18.3703 1.27127 17.2155C0.444308 16.0608 -0.000156971 14.6773 4.15856e-08 13.2583V12.5273C3.62467e-05 11.5011 0.368163 10.5087 1.03788 9.72947L8.54163 1.00047L8.53875 1.00333ZM13.6562 13.2583C13.6563 14.3037 14.0727 15.3063 14.8141 16.0455C15.5554 16.7847 16.5609 17.2 17.6094 17.2C18.6578 17.2 19.6633 16.7847 20.4047 16.0455C21.146 15.3063 21.5625 14.3037 21.5625 13.2583C21.5625 12.8782 21.714 12.5136 21.9835 12.2448C22.2531 11.976 22.6188 11.825 23 11.825C23.3812 11.825 23.7469 11.976 24.0165 12.2448C24.2861 12.5136 24.4375 12.8782 24.4375 13.2583C24.4375 14.3037 24.854 15.3063 25.5953 16.0455C26.3367 16.7847 27.3422 17.2 28.3906 17.2C29.4391 17.2 30.4446 16.7847 31.1859 16.0455C31.9273 15.3063 32.3438 14.3037 32.3438 13.2583C32.3438 12.8782 32.4952 12.5136 32.7648 12.2448C33.0344 11.976 33.4 11.825 33.7812 11.825C34.1625 11.825 34.5281 11.976 34.7977 12.2448C35.0673 12.5136 35.2188 12.8782 35.2188 13.2583C35.2188 14.3037 35.6352 15.3063 36.3766 16.0455C37.1179 16.7847 38.1234 17.2 39.1719 17.2C40.2203 17.2 41.2258 16.7847 41.9672 16.0455C42.7085 15.3063 43.125 14.3037 43.125 13.2583V12.5273C43.125 12.1857 43.0027 11.8553 42.78 11.5957L35.2763 2.86667H10.7238L3.22 11.5957C2.99732 11.8553 2.87497 12.1857 2.875 12.5273V13.2583C2.875 14.3037 3.29149 15.3063 4.03284 16.0455C4.7742 16.7847 5.77969 17.2 6.82812 17.2C7.87656 17.2 8.88205 16.7847 9.62341 16.0455C10.3648 15.3063 10.7812 14.3037 10.7812 13.2583C10.7812 12.8782 10.9327 12.5136 11.2023 12.2448C11.4719 11.976 11.8375 11.825 12.2188 11.825C12.6 11.825 12.9656 11.976 13.2352 12.2448C13.5048 12.5136 13.6562 12.8782 13.6562 13.2583ZM4.3125 21.5C4.69375 21.5 5.05938 21.651 5.32897 21.9198C5.59855 22.1886 5.75 22.5532 5.75 22.9333V40.1333H40.25V22.9333C40.25 22.5532 40.4014 22.1886 40.671 21.9198C40.9406 21.651 41.3063 21.5 41.6875 21.5C42.0687 21.5 42.4344 21.651 42.704 21.9198C42.9736 22.1886 43.125 22.5532 43.125 22.9333V40.1333H44.5625C44.9437 40.1333 45.3094 40.2843 45.579 40.5531C45.8486 40.8219 46 41.1865 46 41.5667C46 41.9468 45.8486 42.3114 45.579 42.5802C45.3094 42.849 44.9437 43 44.5625 43H1.4375C1.05625 43 0.690618 42.849 0.421034 42.5802C0.151451 42.3114 4.15856e-08 41.9468 4.15856e-08 41.5667C4.15856e-08 41.1865 0.151451 40.8219 0.421034 40.5531C0.690618 40.2843 1.05625 40.1333 1.4375 40.1333H2.875V22.9333C2.875 22.5532 3.02645 22.1886 3.29603 21.9198C3.56562 21.651 3.93125 21.5 4.3125 21.5ZM10.0625 22.9333C10.4437 22.9333 10.8094 23.0843 11.079 23.3531C11.3485 23.6219 11.5 23.9865 11.5 24.3667V34.4H34.5V24.3667C34.5 23.9865 34.6514 23.6219 34.921 23.3531C35.1906 23.0843 35.5563 22.9333 35.9375 22.9333C36.3187 22.9333 36.6844 23.0843 36.954 23.3531C37.2236 23.6219 37.375 23.9865 37.375 24.3667V34.4C37.375 35.1603 37.0721 35.8894 36.5329 36.427C35.9938 36.9646 35.2625 37.2667 34.5 37.2667H11.5C10.7375 37.2667 10.0062 36.9646 9.46707 36.427C8.9279 35.8894 8.625 35.1603 8.625 34.4V24.3667C8.625 23.9865 8.77645 23.6219 9.04603 23.3531C9.31562 23.0843 9.68125 22.9333 10.0625 22.9333Z" fill="white"/>
</svg>
